<mxfile host="app.diagrams.net" modified="2022-02-03T17:04:21.665Z" agent="5.0 (Macintosh; Intel Mac OS X 10_15_7) AppleWebKit/605.1.15 (KHTML, like Gecko) Version/14.1.1 Safari/605.1.15" etag="venOHcY5EsivsBY_bmm1" version="16.5.3" type="github" pages="2">
  <diagram id="R2lEEEUBdFMjLlhIrx00" name="Page-1">
    <mxGraphModel dx="1831" dy="830" grid="1" gridSize="10" guides="1" tooltips="1" connect="1" arrows="1" fold="1" page="1" pageScale="1" pageWidth="850" pageHeight="1100" background="none" math="0" shadow="0" extFonts="Permanent Marker^https://fonts.googleapis.com/css?family=Permanent+Marker">
      <root>
        <mxCell id="0" />
        <mxCell id="1" parent="0" />
        <mxCell id="jtKJdrv1uKiVzY4IjvpZ-1" value="USER" style="rounded=0;whiteSpace=wrap;html=1;" vertex="1" parent="1">
          <mxGeometry x="80" y="80" width="120" height="60" as="geometry" />
        </mxCell>
        <mxCell id="jtKJdrv1uKiVzY4IjvpZ-2" value="ACCOUNT" style="whiteSpace=wrap;html=1;" vertex="1" parent="1">
          <mxGeometry x="350" y="80" width="120" height="60" as="geometry" />
        </mxCell>
        <mxCell id="jtKJdrv1uKiVzY4IjvpZ-12" value="" style="rhombus;whiteSpace=wrap;html=1;" vertex="1" parent="1">
          <mxGeometry x="250" y="90" width="40" height="40" as="geometry" />
        </mxCell>
        <mxCell id="jtKJdrv1uKiVzY4IjvpZ-13" value="" style="endArrow=none;html=1;entryX=0;entryY=0.5;entryDx=0;entryDy=0;" edge="1" parent="1" target="jtKJdrv1uKiVzY4IjvpZ-2">
          <mxGeometry width="50" height="50" relative="1" as="geometry">
            <mxPoint x="290" y="110" as="sourcePoint" />
            <mxPoint x="340" y="60" as="targetPoint" />
          </mxGeometry>
        </mxCell>
        <mxCell id="jtKJdrv1uKiVzY4IjvpZ-14" value="" style="endArrow=none;html=1;exitX=1;exitY=0.5;exitDx=0;exitDy=0;" edge="1" parent="1" source="jtKJdrv1uKiVzY4IjvpZ-1">
          <mxGeometry width="50" height="50" relative="1" as="geometry">
            <mxPoint x="200" y="160" as="sourcePoint" />
            <mxPoint x="250" y="110" as="targetPoint" />
          </mxGeometry>
        </mxCell>
        <mxCell id="jtKJdrv1uKiVzY4IjvpZ-15" value="&quot;has&quot;" style="text;html=1;strokeColor=none;fillColor=none;align=center;verticalAlign=middle;whiteSpace=wrap;rounded=0;" vertex="1" parent="1">
          <mxGeometry x="240" y="60" width="60" height="30" as="geometry" />
        </mxCell>
        <mxCell id="jtKJdrv1uKiVzY4IjvpZ-16" value="WORKOUTS" style="rounded=0;whiteSpace=wrap;html=1;" vertex="1" parent="1">
          <mxGeometry x="545" y="365" width="120" height="60" as="geometry" />
        </mxCell>
        <mxCell id="jtKJdrv1uKiVzY4IjvpZ-17" value="MEALS" style="rounded=0;whiteSpace=wrap;html=1;" vertex="1" parent="1">
          <mxGeometry x="345" y="490" width="120" height="60" as="geometry" />
        </mxCell>
        <mxCell id="jtKJdrv1uKiVzY4IjvpZ-18" value="" style="rhombus;whiteSpace=wrap;html=1;" vertex="1" parent="1">
          <mxGeometry x="380" y="370" width="50" height="50" as="geometry" />
        </mxCell>
        <mxCell id="jtKJdrv1uKiVzY4IjvpZ-19" value="" style="endArrow=none;html=1;exitX=0.5;exitY=0;exitDx=0;exitDy=0;" edge="1" parent="1" source="jtKJdrv1uKiVzY4IjvpZ-18">
          <mxGeometry width="50" height="50" relative="1" as="geometry">
            <mxPoint x="360" y="190" as="sourcePoint" />
            <mxPoint x="405" y="140" as="targetPoint" />
          </mxGeometry>
        </mxCell>
        <mxCell id="jtKJdrv1uKiVzY4IjvpZ-20" value="" style="endArrow=none;html=1;entryX=0.5;entryY=1;entryDx=0;entryDy=0;" edge="1" parent="1" target="jtKJdrv1uKiVzY4IjvpZ-18">
          <mxGeometry width="50" height="50" relative="1" as="geometry">
            <mxPoint x="405" y="490" as="sourcePoint" />
            <mxPoint x="455" y="440" as="targetPoint" />
          </mxGeometry>
        </mxCell>
        <mxCell id="jtKJdrv1uKiVzY4IjvpZ-21" value="&quot;contains&quot;" style="text;html=1;strokeColor=none;fillColor=none;align=center;verticalAlign=middle;whiteSpace=wrap;rounded=0;" vertex="1" parent="1">
          <mxGeometry x="415" y="350" width="60" height="30" as="geometry" />
        </mxCell>
        <mxCell id="jtKJdrv1uKiVzY4IjvpZ-25" value="SERVING SIZE" style="ellipse;whiteSpace=wrap;html=1;" vertex="1" parent="1">
          <mxGeometry x="495" y="480" width="70" height="50" as="geometry" />
        </mxCell>
        <mxCell id="jtKJdrv1uKiVzY4IjvpZ-26" value="GRAMS PER SERVING" style="ellipse;whiteSpace=wrap;html=1;" vertex="1" parent="1">
          <mxGeometry x="335" y="570" width="70" height="50" as="geometry" />
        </mxCell>
        <mxCell id="jtKJdrv1uKiVzY4IjvpZ-27" value="CALS PER SERVING" style="ellipse;whiteSpace=wrap;html=1;" vertex="1" parent="1">
          <mxGeometry x="475" y="560" width="70" height="50" as="geometry" />
        </mxCell>
        <mxCell id="jtKJdrv1uKiVzY4IjvpZ-28" value="" style="endArrow=none;html=1;exitX=0;exitY=0;exitDx=0;exitDy=0;" edge="1" parent="1" source="jtKJdrv1uKiVzY4IjvpZ-1">
          <mxGeometry width="50" height="50" relative="1" as="geometry">
            <mxPoint x="90" y="100" as="sourcePoint" />
            <mxPoint x="20" y="50" as="targetPoint" />
            <Array as="points">
              <mxPoint x="50" y="70" />
            </Array>
          </mxGeometry>
        </mxCell>
        <mxCell id="jtKJdrv1uKiVzY4IjvpZ-31" value="" style="endArrow=none;html=1;exitX=1;exitY=0.5;exitDx=0;exitDy=0;entryX=0;entryY=0.5;entryDx=0;entryDy=0;" edge="1" parent="1" source="jtKJdrv1uKiVzY4IjvpZ-18" target="jtKJdrv1uKiVzY4IjvpZ-16">
          <mxGeometry width="50" height="50" relative="1" as="geometry">
            <mxPoint x="495" y="440" as="sourcePoint" />
            <mxPoint x="545" y="390" as="targetPoint" />
          </mxGeometry>
        </mxCell>
        <mxCell id="jtKJdrv1uKiVzY4IjvpZ-36" value="" style="endArrow=none;html=1;" edge="1" parent="1">
          <mxGeometry width="50" height="50" relative="1" as="geometry">
            <mxPoint x="395" y="580" as="sourcePoint" />
            <mxPoint x="425" y="550" as="targetPoint" />
          </mxGeometry>
        </mxCell>
        <mxCell id="jtKJdrv1uKiVzY4IjvpZ-37" value="" style="endArrow=none;html=1;exitX=1;exitY=1;exitDx=0;exitDy=0;" edge="1" parent="1" source="jtKJdrv1uKiVzY4IjvpZ-17">
          <mxGeometry width="50" height="50" relative="1" as="geometry">
            <mxPoint x="425" y="640" as="sourcePoint" />
            <mxPoint x="475" y="590" as="targetPoint" />
          </mxGeometry>
        </mxCell>
        <mxCell id="jtKJdrv1uKiVzY4IjvpZ-38" value="" style="endArrow=none;html=1;exitX=1;exitY=0.5;exitDx=0;exitDy=0;" edge="1" parent="1" source="jtKJdrv1uKiVzY4IjvpZ-17">
          <mxGeometry width="50" height="50" relative="1" as="geometry">
            <mxPoint x="445" y="560" as="sourcePoint" />
            <mxPoint x="495" y="510" as="targetPoint" />
          </mxGeometry>
        </mxCell>
        <mxCell id="jtKJdrv1uKiVzY4IjvpZ-40" value="" style="rhombus;whiteSpace=wrap;html=1;" vertex="1" parent="1">
          <mxGeometry x="265" y="500" width="40" height="40" as="geometry" />
        </mxCell>
        <mxCell id="jtKJdrv1uKiVzY4IjvpZ-42" value="" style="endArrow=none;html=1;entryX=0;entryY=0.5;entryDx=0;entryDy=0;" edge="1" parent="1" target="jtKJdrv1uKiVzY4IjvpZ-17">
          <mxGeometry width="50" height="50" relative="1" as="geometry">
            <mxPoint x="305" y="520" as="sourcePoint" />
            <mxPoint x="335" y="450" as="targetPoint" />
          </mxGeometry>
        </mxCell>
        <mxCell id="jtKJdrv1uKiVzY4IjvpZ-43" value="NUTRIENTS" style="rounded=0;whiteSpace=wrap;html=1;" vertex="1" parent="1">
          <mxGeometry x="105" y="490" width="120" height="60" as="geometry" />
        </mxCell>
        <mxCell id="jtKJdrv1uKiVzY4IjvpZ-44" value="" style="endArrow=none;html=1;entryX=1;entryY=0.5;entryDx=0;entryDy=0;" edge="1" parent="1" target="jtKJdrv1uKiVzY4IjvpZ-43">
          <mxGeometry width="50" height="50" relative="1" as="geometry">
            <mxPoint x="265" y="520" as="sourcePoint" />
            <mxPoint x="295" y="450" as="targetPoint" />
          </mxGeometry>
        </mxCell>
        <mxCell id="jtKJdrv1uKiVzY4IjvpZ-45" value="&quot;contains&quot;" style="text;html=1;strokeColor=none;fillColor=none;align=center;verticalAlign=middle;whiteSpace=wrap;rounded=0;" vertex="1" parent="1">
          <mxGeometry x="255" y="470" width="60" height="30" as="geometry" />
        </mxCell>
        <mxCell id="jtKJdrv1uKiVzY4IjvpZ-49" value="DAILY VALUE" style="ellipse;whiteSpace=wrap;html=1;" vertex="1" parent="1">
          <mxGeometry x="175" y="570" width="70" height="50" as="geometry" />
        </mxCell>
        <mxCell id="jtKJdrv1uKiVzY4IjvpZ-50" value="MICRO NUTRIENT" style="ellipse;whiteSpace=wrap;html=1;" vertex="1" parent="1">
          <mxGeometry x="65" y="570" width="70" height="50" as="geometry" />
        </mxCell>
        <mxCell id="jtKJdrv1uKiVzY4IjvpZ-51" value="" style="endArrow=none;html=1;" edge="1" parent="1">
          <mxGeometry width="50" height="50" relative="1" as="geometry">
            <mxPoint x="110" y="570" as="sourcePoint" />
            <mxPoint x="135" y="550" as="targetPoint" />
          </mxGeometry>
        </mxCell>
        <mxCell id="jtKJdrv1uKiVzY4IjvpZ-53" value="" style="endArrow=none;html=1;entryX=0.825;entryY=1.031;entryDx=0;entryDy=0;entryPerimeter=0;" edge="1" parent="1" target="jtKJdrv1uKiVzY4IjvpZ-43">
          <mxGeometry width="50" height="50" relative="1" as="geometry">
            <mxPoint x="215" y="570" as="sourcePoint" />
            <mxPoint x="265" y="520" as="targetPoint" />
          </mxGeometry>
        </mxCell>
        <mxCell id="jtKJdrv1uKiVzY4IjvpZ-54" value="TYPE" style="ellipse;whiteSpace=wrap;html=1;" vertex="1" parent="1">
          <mxGeometry x="685" y="370" width="70" height="50" as="geometry" />
        </mxCell>
        <mxCell id="jtKJdrv1uKiVzY4IjvpZ-55" value="DURATION" style="ellipse;whiteSpace=wrap;html=1;" vertex="1" parent="1">
          <mxGeometry x="595" y="450" width="70" height="50" as="geometry" />
        </mxCell>
        <mxCell id="jtKJdrv1uKiVzY4IjvpZ-56" value="INTENSITY" style="ellipse;whiteSpace=wrap;html=1;" vertex="1" parent="1">
          <mxGeometry x="585" y="300" width="70" height="50" as="geometry" />
        </mxCell>
        <mxCell id="jtKJdrv1uKiVzY4IjvpZ-57" value="" style="endArrow=none;html=1;entryX=0;entryY=0.5;entryDx=0;entryDy=0;" edge="1" parent="1" target="jtKJdrv1uKiVzY4IjvpZ-54">
          <mxGeometry width="50" height="50" relative="1" as="geometry">
            <mxPoint x="665" y="400" as="sourcePoint" />
            <mxPoint x="715" y="350" as="targetPoint" />
          </mxGeometry>
        </mxCell>
        <mxCell id="jtKJdrv1uKiVzY4IjvpZ-58" value="" style="endArrow=none;html=1;entryX=0.5;entryY=1;entryDx=0;entryDy=0;" edge="1" parent="1" target="jtKJdrv1uKiVzY4IjvpZ-56">
          <mxGeometry width="50" height="50" relative="1" as="geometry">
            <mxPoint x="615" y="365" as="sourcePoint" />
            <mxPoint x="665" y="315" as="targetPoint" />
          </mxGeometry>
        </mxCell>
        <mxCell id="jtKJdrv1uKiVzY4IjvpZ-62" value="NAME" style="ellipse;whiteSpace=wrap;html=1;" vertex="1" parent="1">
          <mxGeometry x="110" y="170" width="70" height="50" as="geometry" />
        </mxCell>
        <mxCell id="jtKJdrv1uKiVzY4IjvpZ-63" value="WEIGHT" style="ellipse;whiteSpace=wrap;html=1;" vertex="1" parent="1">
          <mxGeometry x="-20" y="30" width="70" height="50" as="geometry" />
        </mxCell>
        <mxCell id="jtKJdrv1uKiVzY4IjvpZ-64" value="USER ID" style="ellipse;whiteSpace=wrap;html=1;" vertex="1" parent="1">
          <mxGeometry x="105" y="10" width="70" height="50" as="geometry" />
        </mxCell>
        <mxCell id="jtKJdrv1uKiVzY4IjvpZ-68" value="" style="endArrow=none;html=1;entryX=0.5;entryY=1;entryDx=0;entryDy=0;" edge="1" parent="1" target="jtKJdrv1uKiVzY4IjvpZ-64">
          <mxGeometry width="50" height="50" relative="1" as="geometry">
            <mxPoint x="140" y="80" as="sourcePoint" />
            <mxPoint x="190" y="30" as="targetPoint" />
          </mxGeometry>
        </mxCell>
        <mxCell id="jtKJdrv1uKiVzY4IjvpZ-69" value="" style="endArrow=none;html=1;entryX=0.566;entryY=0.992;entryDx=0;entryDy=0;entryPerimeter=0;" edge="1" parent="1" target="jtKJdrv1uKiVzY4IjvpZ-1">
          <mxGeometry width="50" height="50" relative="1" as="geometry">
            <mxPoint x="145" y="170" as="sourcePoint" />
            <mxPoint x="195" y="120" as="targetPoint" />
          </mxGeometry>
        </mxCell>
        <mxCell id="jtKJdrv1uKiVzY4IjvpZ-70" value="" style="endArrow=none;html=1;" edge="1" parent="1">
          <mxGeometry width="50" height="50" relative="1" as="geometry">
            <mxPoint x="115" y="50" as="sourcePoint" />
            <mxPoint x="165" y="50" as="targetPoint" />
          </mxGeometry>
        </mxCell>
        <mxCell id="jtKJdrv1uKiVzY4IjvpZ-71" value="(1,1)" style="text;html=1;strokeColor=none;fillColor=none;align=center;verticalAlign=middle;whiteSpace=wrap;rounded=0;" vertex="1" parent="1">
          <mxGeometry x="200" y="80" width="60" height="30" as="geometry" />
        </mxCell>
        <mxCell id="jtKJdrv1uKiVzY4IjvpZ-72" value="(1,1)" style="text;html=1;strokeColor=none;fillColor=none;align=center;verticalAlign=middle;whiteSpace=wrap;rounded=0;" vertex="1" parent="1">
          <mxGeometry x="290" y="80" width="60" height="30" as="geometry" />
        </mxCell>
        <mxCell id="jtKJdrv1uKiVzY4IjvpZ-73" value="(1,m)" style="text;html=1;strokeColor=none;fillColor=none;align=center;verticalAlign=middle;whiteSpace=wrap;rounded=0;" vertex="1" parent="1">
          <mxGeometry x="405" y="440" width="60" height="30" as="geometry" />
        </mxCell>
        <mxCell id="jtKJdrv1uKiVzY4IjvpZ-74" value="(1,1)" style="text;html=1;strokeColor=none;fillColor=none;align=center;verticalAlign=middle;whiteSpace=wrap;rounded=0;" vertex="1" parent="1">
          <mxGeometry x="395" y="300" width="60" height="30" as="geometry" />
        </mxCell>
        <mxCell id="jtKJdrv1uKiVzY4IjvpZ-76" value="(1,m)" style="text;html=1;strokeColor=none;fillColor=none;align=center;verticalAlign=middle;whiteSpace=wrap;rounded=0;" vertex="1" parent="1">
          <mxGeometry x="435" y="160" width="60" height="30" as="geometry" />
        </mxCell>
        <mxCell id="jtKJdrv1uKiVzY4IjvpZ-77" value="(1,m)" style="text;html=1;strokeColor=none;fillColor=none;align=center;verticalAlign=middle;whiteSpace=wrap;rounded=0;" vertex="1" parent="1">
          <mxGeometry x="285" y="490" width="60" height="30" as="geometry" />
        </mxCell>
        <mxCell id="jtKJdrv1uKiVzY4IjvpZ-78" value="(1,m)" style="text;html=1;strokeColor=none;fillColor=none;align=center;verticalAlign=middle;whiteSpace=wrap;rounded=0;" vertex="1" parent="1">
          <mxGeometry x="215" y="490" width="60" height="30" as="geometry" />
        </mxCell>
        <mxCell id="LMWK-hFGzTyjhDqOA2zB-1" value="" style="rhombus;whiteSpace=wrap;html=1;" vertex="1" parent="1">
          <mxGeometry x="417.5" y="220" width="55" height="50" as="geometry" />
        </mxCell>
        <mxCell id="LMWK-hFGzTyjhDqOA2zB-4" value="" style="endArrow=none;html=1;entryX=0.75;entryY=1;entryDx=0;entryDy=0;" edge="1" parent="1" target="jtKJdrv1uKiVzY4IjvpZ-2">
          <mxGeometry width="50" height="50" relative="1" as="geometry">
            <mxPoint x="445" y="220" as="sourcePoint" />
            <mxPoint x="495" y="170" as="targetPoint" />
          </mxGeometry>
        </mxCell>
        <mxCell id="LMWK-hFGzTyjhDqOA2zB-5" value="&quot;records weight&quot;" style="text;html=1;strokeColor=none;fillColor=none;align=center;verticalAlign=middle;whiteSpace=wrap;rounded=0;" vertex="1" parent="1">
          <mxGeometry x="450" y="200" width="60" height="30" as="geometry" />
        </mxCell>
        <mxCell id="LMWK-hFGzTyjhDqOA2zB-6" value="DATE" style="rounded=0;whiteSpace=wrap;html=1;" vertex="1" parent="1">
          <mxGeometry x="525" y="225" width="80" height="40" as="geometry" />
        </mxCell>
        <mxCell id="LMWK-hFGzTyjhDqOA2zB-7" value="WEIGHT" style="ellipse;whiteSpace=wrap;html=1;" vertex="1" parent="1">
          <mxGeometry x="455" y="280" width="70" height="50" as="geometry" />
        </mxCell>
        <mxCell id="LMWK-hFGzTyjhDqOA2zB-8" value="" style="endArrow=none;html=1;entryX=1;entryY=1;entryDx=0;entryDy=0;" edge="1" parent="1" target="LMWK-hFGzTyjhDqOA2zB-1">
          <mxGeometry width="50" height="50" relative="1" as="geometry">
            <mxPoint x="465" y="290" as="sourcePoint" />
            <mxPoint x="515" y="240" as="targetPoint" />
          </mxGeometry>
        </mxCell>
        <mxCell id="LMWK-hFGzTyjhDqOA2zB-9" value="" style="endArrow=none;html=1;" edge="1" parent="1">
          <mxGeometry width="50" height="50" relative="1" as="geometry">
            <mxPoint x="475" y="244.29" as="sourcePoint" />
            <mxPoint x="525" y="244.29" as="targetPoint" />
          </mxGeometry>
        </mxCell>
        <mxCell id="LMWK-hFGzTyjhDqOA2zB-10" value="" style="endArrow=none;html=1;entryX=0;entryY=0.5;entryDx=0;entryDy=0;exitX=1;exitY=1;exitDx=0;exitDy=0;" edge="1" parent="1" source="jtKJdrv1uKiVzY4IjvpZ-18" target="jtKJdrv1uKiVzY4IjvpZ-55">
          <mxGeometry width="50" height="50" relative="1" as="geometry">
            <mxPoint x="450" y="410" as="sourcePoint" />
            <mxPoint x="500" y="360" as="targetPoint" />
          </mxGeometry>
        </mxCell>
        <mxCell id="LMWK-hFGzTyjhDqOA2zB-12" value="&lt;u&gt;NAME&lt;/u&gt;" style="ellipse;whiteSpace=wrap;html=1;" vertex="1" parent="1">
          <mxGeometry x="455" y="630" width="70" height="50" as="geometry" />
        </mxCell>
        <mxCell id="LMWK-hFGzTyjhDqOA2zB-13" value="SERVING SIZE" style="ellipse;whiteSpace=wrap;html=1;" vertex="1" parent="1">
          <mxGeometry x="370" y="640" width="70" height="50" as="geometry" />
        </mxCell>
        <mxCell id="LMWK-hFGzTyjhDqOA2zB-14" value="" style="endArrow=none;html=1;entryX=0.879;entryY=1.048;entryDx=0;entryDy=0;entryPerimeter=0;" edge="1" parent="1" target="jtKJdrv1uKiVzY4IjvpZ-17">
          <mxGeometry width="50" height="50" relative="1" as="geometry">
            <mxPoint x="485" y="630" as="sourcePoint" />
            <mxPoint x="535" y="580" as="targetPoint" />
          </mxGeometry>
        </mxCell>
        <mxCell id="LMWK-hFGzTyjhDqOA2zB-15" value="" style="endArrow=none;html=1;entryX=0.75;entryY=1;entryDx=0;entryDy=0;" edge="1" parent="1" target="jtKJdrv1uKiVzY4IjvpZ-17">
          <mxGeometry width="50" height="50" relative="1" as="geometry">
            <mxPoint x="405" y="640" as="sourcePoint" />
            <mxPoint x="455" y="590" as="targetPoint" />
          </mxGeometry>
        </mxCell>
        <mxCell id="LMWK-hFGzTyjhDqOA2zB-16" value="(1,m)" style="text;html=1;strokeColor=none;fillColor=none;align=center;verticalAlign=middle;whiteSpace=wrap;rounded=0;" vertex="1" parent="1">
          <mxGeometry x="465" y="370" width="60" height="30" as="geometry" />
        </mxCell>
        <mxCell id="LMWK-hFGzTyjhDqOA2zB-17" value="(1,m)" style="text;html=1;strokeColor=none;fillColor=none;align=center;verticalAlign=middle;whiteSpace=wrap;rounded=0;" vertex="1" parent="1">
          <mxGeometry x="495" y="420" width="60" height="30" as="geometry" />
        </mxCell>
        <mxCell id="LMWK-hFGzTyjhDqOA2zB-18" value="(1,1)" style="text;html=1;strokeColor=none;fillColor=none;align=center;verticalAlign=middle;whiteSpace=wrap;rounded=0;" vertex="1" parent="1">
          <mxGeometry x="470" y="220" width="60" height="30" as="geometry" />
        </mxCell>
        <mxCell id="LMWK-hFGzTyjhDqOA2zB-20" style="edgeStyle=orthogonalEdgeStyle;orthogonalLoop=1;jettySize=auto;html=1;exitX=0;exitY=0.5;exitDx=0;exitDy=0;entryX=0;entryY=0.5;entryDx=0;entryDy=0;" edge="1" parent="1" source="LMWK-hFGzTyjhDqOA2zB-19" target="LMWK-hFGzTyjhDqOA2zB-22">
          <mxGeometry relative="1" as="geometry">
            <mxPoint x="780" y="280" as="targetPoint" />
          </mxGeometry>
        </mxCell>
        <mxCell id="LMWK-hFGzTyjhDqOA2zB-21" style="edgeStyle=orthogonalEdgeStyle;orthogonalLoop=1;jettySize=auto;html=1;exitX=1;exitY=0.5;exitDx=0;exitDy=0;entryX=1;entryY=0.5;entryDx=0;entryDy=0;" edge="1" parent="1" source="LMWK-hFGzTyjhDqOA2zB-19" target="LMWK-hFGzTyjhDqOA2zB-22">
          <mxGeometry relative="1" as="geometry">
            <mxPoint x="960" y="220" as="targetPoint" />
          </mxGeometry>
        </mxCell>
        <mxCell id="LMWK-hFGzTyjhDqOA2zB-19" value="UNIT" style="rounded=0;whiteSpace=wrap;html=1;" vertex="1" parent="1">
          <mxGeometry x="810" y="80" width="120" height="60" as="geometry" />
        </mxCell>
        <mxCell id="LMWK-hFGzTyjhDqOA2zB-25" style="edgeStyle=orthogonalEdgeStyle;orthogonalLoop=1;jettySize=auto;html=1;exitX=0.5;exitY=0;exitDx=0;exitDy=0;entryX=0.5;entryY=1;entryDx=0;entryDy=0;" edge="1" parent="1" source="LMWK-hFGzTyjhDqOA2zB-22" target="LMWK-hFGzTyjhDqOA2zB-23">
          <mxGeometry relative="1" as="geometry" />
        </mxCell>
        <mxCell id="LMWK-hFGzTyjhDqOA2zB-22" value="" style="rhombus;whiteSpace=wrap;html=1;" vertex="1" parent="1">
          <mxGeometry x="840" y="250" width="60" height="60" as="geometry" />
        </mxCell>
        <mxCell id="LMWK-hFGzTyjhDqOA2zB-23" value="RATIO" style="ellipse;whiteSpace=wrap;html=1;" vertex="1" parent="1">
          <mxGeometry x="835" y="175" width="70" height="50" as="geometry" />
        </mxCell>
        <mxCell id="LMWK-hFGzTyjhDqOA2zB-24" value="&quot;converts&quot;" style="text;html=1;strokeColor=none;fillColor=none;align=center;verticalAlign=middle;whiteSpace=wrap;rounded=0;" vertex="1" parent="1">
          <mxGeometry x="840" y="310" width="60" height="30" as="geometry" />
        </mxCell>
      </root>
    </mxGraphModel>
  </diagram>
  <diagram id="1wJRxoIFx3Fj2CXJ-T2Y" name="Page-2">
    <mxGraphModel dx="687" dy="581" grid="1" gridSize="10" guides="1" tooltips="1" connect="1" arrows="1" fold="1" page="1" pageScale="1" pageWidth="827" pageHeight="1169" math="0" shadow="0">
      <root>
        <mxCell id="Z2hSFM5Kysd-prAp04pk-0" />
        <mxCell id="Z2hSFM5Kysd-prAp04pk-1" parent="Z2hSFM5Kysd-prAp04pk-0" />
      </root>
    </mxGraphModel>
  </diagram>
</mxfile>
